<svg aria-hidden="true" style="position:absolute;width:0;height:0" xmlns="http://www.w3.org/2000/svg" overflow="hidden"><defs><symbol id="icon-csswizardry" viewBox="0 0 32 32"><path fill="var(--color1, #f43059)" d="M.04 21.904V1.491A1.49 1.49 0 011.529 0H30.4c.832 0 1.493.667 1.493 1.493v19.68c-.893-.547-1.947-.821-3.143-.821-1.672 0-2.94.4-3.805 1.195-.867.797-1.293 1.771-1.293 2.967 0 1.293.44 2.253 1.333 2.867.52.38 1.48.72 2.853 1.016l1.4.32c.84.177 1.427.4 1.813.613.373.244.573.583.573 1.02 0 .755-.387 1.273-1.16 1.531l-.04.021h-2.947a2.261 2.261 0 01-.92-.6c-.24-.299-.4-.733-.48-1.351h-2.64c0 .755.137 1.393.44 1.973h-2.24c.253-.52.4-1.097.4-1.756 0-1.173-.4-2.067-1.181-2.688-.499-.396-1.253-.713-2.251-.956l-2.293-.536c-.88-.187-1.453-.373-1.733-.533-.413-.24-.613-.6-.613-1.053 0-.507.213-.907.627-1.187.44-.28 1-.413 1.72-.413.653 0 1.173.12 1.613.347.659.341 1 .92 1.053 1.716h2.667c-.04-1.395-.553-2.471-1.533-3.205-.992-.733-2.167-1.113-3.56-1.113-1.673 0-2.927.4-3.804 1.173-.853.777-1.293 1.773-1.293 2.947 0 1.293.44 2.251 1.333 2.867.536.36 1.493.697 2.867 1.013l1.393.32c.813.18 1.413.38 1.813.62.373.24.573.573.573 1.013 0 .76-.4 1.253-1.173 1.533h-2.987c-.379-.141-.693-.341-.92-.62-.24-.293-.413-.752-.493-1.352h-2.689c0 .744.14 1.4.427 1.973H8.813c.44-.693.737-1.493.884-2.387H6.96c-.187.68-.416 1.197-.7 1.533-.347.44-.8.72-1.36.86H3.264c-.6-.14-1.116-.477-1.533-1.013-.619-.744-.917-1.859-.917-3.333 0-1.493.307-2.627.88-3.44.6-.817 1.373-1.213 2.387-1.213 1 0 1.733.28 2.253.859.28.32.52.8.693 1.435H9.8c-.04-.824-.347-1.653-.915-2.48-1.029-1.467-2.659-2.2-4.885-2.2-1.547 0-2.845.48-3.88 1.413zm31.859 4.848V24.68h-.688c-.047-.796-.4-1.363-1.044-1.699-.417-.219-.956-.331-1.591-.331-.72 0-1.273.147-1.693.429a1.395 1.395 0 00-.637 1.203c0 .473.221.827.636 1.06.293.14.867.339 1.747.539l2.293.547c.4.08.747.2 1.067.307z"/></symbol><symbol id="icon-git" viewBox="0 0 32 32"><path fill="var(--color2, #f05032)" d="M31.395 14.573L17.423.602a2.065 2.065 0 00-2.917 0l-2.895 2.9 3.68 3.68a2.452 2.452 0 013.103 3.121l3.544 3.547a2.451 2.451 0 012.533 4.052 2.449 2.449 0 01-3.467 0 2.46 2.46 0 01-.539-2.661l-3.319-3.301v8.7c.235.115.456.271.651.464a2.463 2.463 0 010 3.467 2.46 2.46 0 01-3.479 0 2.445 2.445 0 010-3.464c.243-.24.516-.421.807-.541v-8.785a2.433 2.433 0 01-.8-.535 2.445 2.445 0 01-.528-2.679l-3.616-3.633L.6 14.509c-.8.807-.8 2.112 0 2.919l13.973 13.969a2.061 2.061 0 002.915 0L31.395 17.49a2.059 2.059 0 000-2.916z"/></symbol><symbol id="icon-github" viewBox="0 0 32 32"><path d="M16 .396c-8.84 0-16 7.164-16 16 0 7.071 4.584 13.067 10.94 15.18.8.151 1.093-.344 1.093-.769 0-.38-.013-1.387-.02-2.72-4.451.965-5.389-2.147-5.389-2.147-.728-1.847-1.78-2.34-1.78-2.34-1.449-.992.112-.972.112-.972 1.607.112 2.451 1.648 2.451 1.648 1.427 2.447 3.745 1.74 4.66 1.331.144-1.035.556-1.74 1.013-2.14-3.553-.4-7.288-1.776-7.288-7.907 0-1.747.62-3.173 1.647-4.293-.18-.404-.72-2.031.14-4.235 0 0 1.34-.429 4.4 1.64 1.28-.356 2.64-.532 4-.54 1.36.008 2.72.184 4 .54 3.04-2.069 4.38-1.64 4.38-1.64.86 2.204.32 3.831.16 4.235 1.02 1.12 1.64 2.547 1.64 4.293 0 6.147-3.74 7.5-7.3 7.893.56.48 1.08 1.461 1.08 2.96 0 2.141-.02 3.861-.02 4.381 0 .42.28.92 1.1.76C27.42 29.455 32 23.455 32 16.395c0-8.836-7.164-16-16-16z"/></symbol><symbol id="icon-heroku" viewBox="0 0 32 32"><path fill="var(--color3, #430098)" d="M27.48 0H4.52a2.867 2.867 0 00-2.88 2.88v26.241A2.868 2.868 0 004.52 32h22.96c1.6 0 2.879-1.281 2.879-2.879V2.88A2.865 2.865 0 0027.48 0zm1.28 29.121c0 .719-.561 1.28-1.28 1.28H4.52c-.72 0-1.28-.561-1.28-1.28V2.88c0-.72.56-1.281 1.28-1.281h22.96c.719 0 1.28.561 1.28 1.281zM8.84 27.199L12.44 24l-3.6-3.2zM21.8 14.24c-.639-.64-1.839-1.44-3.839-1.44-2.161 0-4.401.561-6 1.12V4.8h-3.2v13.84l2.24-1.04s3.68-1.68 6.88-1.68c1.6 0 2 .88 2 1.68v9.6h3.2v-9.6c.079-.239.079-2.001-1.281-3.36zM17.56 10h3.2c1.44-1.68 2.16-3.361 2.4-5.2h-3.199C19.64 6.639 18.84 8.32 17.56 10z"/></symbol><symbol id="icon-html5" viewBox="0 0 32 32"><path fill="var(--color4, #e34f26)" d="M2 0h28l-2.547 28.751L15.969 32 4.55 28.749zm9.375 13l-.309-3.624 13.412.004.307-3.496L7.217 5.88l.931 10.68h12.168l-.435 4.568-3.88 1.072-3.94-1.08-.251-2.813H8.331l.44 5.561L16 25.801l7.172-1.924.992-10.876z"/></symbol><symbol id="icon-javascript" viewBox="0 0 32 32"><path fill="var(--color5, #f7df1e)" d="M0 0h32v32H0zm29.379 24.368c-.233-1.46-1.184-2.687-4.004-3.831-.981-.46-2.072-.78-2.396-1.52-.121-.44-.14-.68-.061-.94.2-.861 1.22-1.12 2.02-.88.52.16 1 .56 1.301 1.2 1.379-.901 1.379-.901 2.34-1.5-.36-.56-.539-.801-.781-1.04-.84-.94-1.959-1.42-3.779-1.379l-.94.119c-.901.22-1.76.7-2.28 1.34-1.52 1.721-1.081 4.721.759 5.961 1.82 1.36 4.481 1.659 4.821 2.94.32 1.56-1.16 2.06-2.621 1.88-1.081-.24-1.68-.781-2.34-1.781l-2.44 1.401c.28.64.6.919 1.08 1.479 2.32 2.341 8.12 2.221 9.161-1.339.039-.12.32-.94.099-2.2zm-11.978-9.66h-2.997c0 2.584-.012 5.152-.012 7.74 0 1.643.084 3.151-.184 3.615-.44.919-1.573.801-2.088.64-.528-.261-.796-.621-1.107-1.14-.084-.14-.147-.261-.169-.261l-2.433 1.5c.407.84 1 1.563 1.765 2.023 1.14.68 2.672.9 4.276.54 1.044-.301 1.944-.921 2.415-1.881.68-1.24.536-2.76.529-4.461.016-2.739 0-5.479 0-8.239z"/></symbol><symbol id="icon-jquery" viewBox="0 0 32 32"><path fill="var(--color6, #0769ad)" d="M2.045 7.832c-2.831 4.067-2.48 9.356-.316 13.675.049.105.104.205.157.305.031.069.065.133.103.199.017.037.041.076.063.111.035.069.072.136.108.203l.209.353c.039.065.076.129.12.195.073.125.16.249.236.375.035.052.067.104.105.156.148.232.284.425.428.612l-.015-.02c.104.143.208.281.32.42.036.051.076.101.113.152l.295.359c.036.041.072.089.111.132.131.157.269.311.408.465 0 .003.004.005.007.009.172.217.358.409.56.582l.006.005c.107.109.213.219.327.325l.135.129c.148.139.296.277.452.411.003 0 .004.003.007.004l.076.067c.136.119.273.237.413.347l.167.14c.113.091.231.177.347.267l.181.139c.124.093.256.185.383.276.047.033.093.067.141.097l.039.031.375.247.16.107c.196.125.391.244.584.361.056.028.112.059.164.091.144.083.293.167.439.244.08.045.163.084.245.125.1.056.204.111.311.167a.387.387 0 01.077.032l-.002-.001c.044.02.085.041.128.063.16.08.327.156.5.232.032.013.067.027.101.045.192.084.384.164.583.243.045.013.093.036.14.053.18.068.365.137.548.203l.067.024c.204.069.405.136.612.2.048.013.097.031.148.044.212.064.417.14.631.181 13.68 2.493 17.656-8.225 17.656-8.225-3.34 4.349-9.267 5.496-14.88 4.22-.208-.048-.416-.115-.625-.176a14.64 14.64 0 01-.882-.28l.126.039-.083-.032c-.181-.061-.356-.129-.533-.197a1.738 1.738 0 00-.132-.05l-.015-.004c-.196-.079-.387-.16-.576-.244-.041-.013-.076-.032-.117-.048a16.54 16.54 0 01-.665-.308l.184.081c-.049-.021-.093-.044-.141-.069a10.022 10.022 0 01-.373-.189 4.225 4.225 0 01-.276-.142l.027.014c-.151-.08-.301-.167-.452-.249-.045-.032-.097-.059-.149-.088a17.928 17.928 0 01-.668-.409l.084.05a2.925 2.925 0 01-.165-.111l.008.006a7.671 7.671 0 01-.44-.291l.024.017c-.047-.031-.089-.064-.137-.097-.17-.118-.298-.211-.424-.306l.032.023c-.056-.045-.116-.088-.176-.133-.117-.092-.236-.18-.353-.277l-.157-.125c-.174-.14-.319-.263-.461-.388l.016.013A.356.356 0 008.771 23l-.001-.001-.463-.421-.133-.125c-.109-.111-.221-.217-.333-.327l-.129-.133a12.33 12.33 0 01-.404-.421l-.008-.009-.02-.021a23.788 23.788 0 01-.417-.472c-.036-.041-.069-.085-.107-.129l-.301-.369a20.463 20.463 0 01-.4-.522l-.054-.075C2.888 15.724 1.761 9.858 4.253 5.046zm8.783-3.425c-2.052 2.945-1.936 6.884-.339 9.999.296.584.596 1.078.928 1.547l-.025-.038c.307.44.645.96 1.056 1.315a8.9 8.9 0 00.459.479l.12.12c.152.147.308.291.467.433l.02.017c.16.141.34.29.524.435l.028.021c.045.031.084.067.128.097.187.144.375.283.569.42l.02.012c.083.06.171.115.264.173.037.024.08.056.12.08.141.091.28.176.423.263.023.009.043.021.064.031.12.073.251.144.376.209.044.027.087.047.132.072.089.044.177.091.263.136l.043.019c.18.088.364.171.544.253a14.006 14.006 0 00.57.234c.067.023.129.049.192.069.136.051.279.097.413.144l.187.06c.195.06.392.139.597.172 10.56 1.751 13.005-6.383 13.005-6.383-2.201 3.168-6.461 4.677-11.001 3.499a9.85 9.85 0 01-.673-.195l.076.022c-.064-.017-.12-.037-.181-.056-.139-.048-.281-.095-.416-.145l-.192-.072c-.149-.06-.301-.116-.447-.18-.045-.02-.087-.033-.121-.053-.187-.084-.375-.167-.556-.256l-.275-.143-.159-.08c-.123-.064-.236-.131-.353-.2a.952.952 0 01-.086-.047l.003.002c-.141-.088-.288-.173-.423-.264-.045-.025-.087-.056-.129-.083l-.277-.181c-.192-.133-.38-.277-.569-.416-.043-.039-.084-.071-.125-.105-1.996-1.569-3.571-3.715-4.317-6.144-.787-2.525-.613-5.357.745-7.656zm7.385-2.562c-1.211 1.776-1.327 3.981-.493 5.94.885 2.08 2.696 3.713 4.805 4.487.087.033.171.061.26.093l.117.036c.123.039.247.084.373.112 5.835 1.125 7.413-2.996 7.839-3.601-1.389 1.995-3.719 2.473-6.576 1.779a6.317 6.317 0 01-.732-.228l.044.015a8.2 8.2 0 01-.873-.361l.05.022a8.696 8.696 0 01-1.462-.896l.021.016c-2.56-1.939-4.145-5.64-2.476-8.655z"/></symbol><symbol id="icon-linkedin" viewBox="0 0 32 32"><path fill="var(--color7, #0077b5)" d="M27.263 27.269h-4.739v-7.425c0-1.771-.036-4.049-2.469-4.049-2.471 0-2.848 1.927-2.848 3.919v7.556h-4.739V12.001h4.552v2.081h.061c.636-1.2 2.183-2.467 4.493-2.467 4.801 0 5.689 3.16 5.689 7.273zM7.116 9.911a2.75 2.75 0 01-2.751-2.753 2.752 2.752 0 112.751 2.753zm2.376 17.358H4.74V12h4.752zM29.633 0H2.361C1.056 0 0 1.032 0 2.305v27.389c0 1.275 1.056 2.305 2.361 2.305h27.268c1.304 0 2.371-1.031 2.371-2.305V2.305C32 1.032 30.933 0 29.629 0z"/></symbol><symbol id="icon-mongodb" viewBox="0 0 32 32"><path fill="var(--color8, #47a248)" d="M22.907 12.691c-1.684-7.413-5.656-9.849-6.083-10.781-.469-.657-.977-1.909-.977-1.909l-.007.065v.017h-.001a.48.48 0 00-.005.052v.02h-.003c0 .013-.003.024-.003.035v.035h-.004c-.001.011-.001.024-.004.033v.028h-.003c0 .009 0 .02-.003.028v.027h-.003a.322.322 0 01-.003.043v.003l-.012.067v.011h-.003c-.001.005-.004.011-.004.016v.023h-.004v.029h-.007v.024h-.007v.028h-.005V.61h-.005v.023h-.008v.019h-.005v.024h-.005v.019h-.007v.017h-.004v.02h-.005l-.001.005V.75h-.004l-.001.008v.008h-.003l-.003.013-.013.028V.81l-.007.009V.83h-.005v.011h-.007v.011h-.004v.013h-.008v.019h-.005v.005h-.005V.9h-.005v.015h-.005v.011h-.008v.015h-.005v.011h-.007v.011h-.004v.013h-.007v.011h-.005v.008h-.005v.011h-.008v.012h-.005v.008h-.007v.011h-.005v.015h-.007v.005h-.004v.011h-.008v.005h-.005v.013h-.005v.005h-.005v.011h-.007v.008h-.004l-.003.005v.005h-.003c-.001.003-.003.003-.003.005v.001h-.001a.02.02 0 01-.005.009v.004h-.001c-.007.008-.011.016-.016.024v.001c-.003.003-.009.008-.012.013v.003h-.001l-.004.004v.004h-.003l-.004.004v.001h-.001l-.004.005v.005h-.004l-.003.003v.003h-.003c0 .003-.003.003-.003.004v.004h-.005l-.003.004v.008h-.004v.005h-.005v.008h-.005v.011h-.007v-.011h-.007v.005h-.005v.008h-.007v.011h-.007v.005h-.005v.008h-.005v.005h-.005v.011h-.008V1.3h-.005v.008h-.007v.005h-.005v.007h-.007v.013h-.003v.005h-.008v.007h-.005v.003h-.005v.005h-.007v.013h-.005v.005h-.007v.005h-.005v.008h-.007v.005h-.007v.005H15.3v.005h-.005v.013h-.005v.007h-.008v.005h-.005v.005h-.007v.008h-.005v.005h-.007v.009h-.005v.005h-.008v.008h-.003v.005h-.005v.005h-.007v.005h-.005v.008h-.007v.005h-.004l-.001.003v.003h-.003l-.005.005-.005.004v.008h-.005v.007h-.005v.005h-.005v.005h-.004l-.004.004v.004h-.003l-.003.003v.004h-.003c-.007.008-.009.013-.019.021l-.016.013a.493.493 0 00-.052.043c-.011.007-.021.016-.029.023v.001h-.001a7.387 7.387 0 01-.065.052v.001l-.099.083v-.001h-.003c-.076.063-.156.133-.248.212v.001h-.001c-.225.197-.493.451-.793.757l-.025.025c-1.813 1.876-4.671 5.785-4.972 12.103-.027.523-.021 1.031.008 1.525v.012c.145 2.489.927 4.615 1.904 6.341v.001a16.56 16.56 0 001.235 1.873v.001c1.469 1.94 2.969 3.089 3.352 3.368.588 1.364.533 3.705.533 3.705l.859.287s-.175-2.268.071-3.363a2.08 2.08 0 01.465-.883c.141-.1.56-.401 1.063-.86.024-.025.037-.048.059-.072 2.028-1.891 5.816-6.547 4.517-14.132z"/></symbol><symbol id="icon-node-dot-js" viewBox="0 0 32 32"><path fill="var(--color9, #393)" d="M15.997 32c-.428 0-.855-.112-1.229-.329l-3.915-2.316c-.584-.327-.299-.443-.107-.511.78-.271.937-.333 1.771-.805.087-.049.201-.031.291.023l3.008 1.785c.109.06.263.06.363 0l11.727-6.768a.37.37 0 00.179-.317V9.229a.38.38 0 00-.183-.323L16.181 2.143a.368.368 0 00-.361 0L4.101 8.907a.378.378 0 00-.185.321v13.533c0 .129.072.252.185.313l3.212 1.856c1.743.872 2.811-.155 2.811-1.187V10.382c0-.189.152-.337.341-.337h1.487a.34.34 0 01.34.337v13.361c0 2.327-1.267 3.66-3.472 3.66-.677 0-1.212 0-2.701-.735l-3.077-1.769a2.475 2.475 0 01-1.229-2.139V9.227c0-.879.471-1.7 1.229-2.137L14.769.314a2.567 2.567 0 012.464 0L28.958 7.09a2.475 2.475 0 011.232 2.137V22.76c0 .879-.472 1.697-1.232 2.139L17.233 31.67a2.45 2.45 0 01-1.233.329zm9.468-13.343c0-2.533-1.712-3.208-5.316-3.684-3.641-.481-4.012-.731-4.012-1.583 0-.704.313-1.644 3.011-1.644 2.409 0 3.297.519 3.663 2.143a.338.338 0 00.329.265h1.521a.34.34 0 00.337-.369c-.236-2.797-2.095-4.101-5.851-4.101-3.344 0-5.339 1.411-5.339 3.777 0 2.567 1.984 3.276 5.193 3.593 3.84.376 4.137.937 4.137 1.692 0 1.311-1.052 1.869-3.523 1.869-3.103 0-3.785-.779-4.015-2.323a.34.34 0 00-.337-.287h-1.516a.336.336 0 00-.339.337c0 1.976 1.075 4.331 6.207 4.331 3.717.001 5.848-1.461 5.848-4.017z"/></symbol><symbol id="icon-npm" viewBox="0 0 32 32"><path fill="var(--color10, #cb3837)" d="M0 9.779v10.667h8.888v1.776H16v-1.776h16V9.779zm8.888 8.885H7.112v-5.333h-1.78v5.333H1.78v-7.108h7.108zm5.333 0v1.781h-3.553v-8.889h7.112v7.109h-3.559zm16.002 0H28.45v-5.333h-1.781v5.333h-1.78v-5.333h-1.773v5.333h-3.561v-7.108h10.669zM14.22 13.333H16v3.556h-1.78z"/></symbol><symbol id="icon-sass" viewBox="0 0 32 32"><path fill="var(--color11, #c69)" d="M16 0c8.836 0 16 7.164 16 16s-7.164 16-16 16S0 24.836 0 16 7.164 0 16 0zm-3.18 21.331c.233.86.208 1.664-.032 2.389l-.087.24c-.032.081-.069.16-.104.235a4.492 4.492 0 01-.74 1.08c-.931 1.012-2.229 1.396-2.787 1.073-.6-.349-.301-1.78.779-2.92 1.161-1.224 2.827-2.012 2.827-2.012v-.004zM26.035 6.849c-.723-2.844-5.436-3.779-9.896-2.193-2.652.943-5.525 2.424-7.591 4.356-2.457 2.295-2.848 4.295-2.687 5.131.569 2.948 4.609 4.876 6.271 6.307v.008c-.489.24-4.075 2.039-4.915 3.9-.9 1.96.14 3.361.82 3.54 2.1.581 4.26-.48 5.42-2.199 1.12-1.681 1.021-3.841.539-4.901.661-.18 1.44-.26 2.44-.139 2.801.32 3.361 2.08 3.24 2.8-.12.719-.697 1.139-.899 1.259-.2.121-.26.16-.241.241.02.12.121.12.28.1.22-.04 1.461-.6 1.521-1.961.06-1.72-1.581-3.639-4.5-3.6-1.2.021-1.961.121-2.5.341a.479.479 0 00-.14-.14c-1.8-1.94-5.14-3.3-5-5.88.04-.94.38-3.419 6.4-6.419 4.94-2.461 8.881-1.78 9.561-.28.977 2.139-2.101 6.12-7.241 6.699-1.96.22-2.98-.539-3.241-.82-.279-.3-.319-.32-.419-.259-.16.08-.06.34 0 .5.16.4.78 1.1 1.861 1.46.939.3 3.24.479 6-.6 3.099-1.199 5.519-4.54 4.819-7.34z"/></symbol><symbol id="icon-stackoverflow" viewBox="0 0 32 32"><path fill="var(--color12, #fe7a16)" d="M25.315 29.153v-8.539h2.845v11.385H2.459V20.614h2.84v8.539zM8.148 26.308h14.319v-2.849H8.148zm.345-6.469l13.973 2.919.601-2.76-13.971-2.916zm1.812-6.742l12.94 6.04 1.204-2.6-12.941-6.04-1.203 2.581zm3.62-6.38l10.956 9.14 1.812-2.16L15.738 4.56l-1.8 2.156zM21.001 0l-2.328 1.725 8.54 11.472 2.328-1.725L20.998 0z"/></symbol><symbol id="icon-share" viewBox="0 0 32 32"><path d="M8 20s1.838-6 12-6v6l12-8-12-8v6c-8 0-12 4.99-12 10zm14 4H4V12h3.934c.315-.372.654-.729 1.015-1.068 1.374-1.287 3.018-2.27 4.879-2.932H.001v20h26v-8.395l-4 2.667V24z"/></symbol><symbol id="icon-embed2" viewBox="0 0 40 32"><path d="M26 23l3 3 10-10L29 6l-3 3 7 7zM14 9l-3-3L1 16l10 10 3-3-7-7zM21.916 4.704l2.171.592-6 22.001-2.171-.592 6-22.001z"/></symbol></defs></svg>